<svg width="41" height="41" viewBox="0 0 41 41" fill="none" xmlns="http://www.w3.org/2000/svg">
<g clip-path="url(#clip0_389_639)">
<path d="M14.855 24.3433C15.014 24.6083 15.186 24.8663 15.371 25.1173C15.187 24.8663 15.014 24.6093 14.855 24.3433Z" fill="#3182F6"/>
<path d="M20.3753 28.7323L16.3853 32.7233C17.1663 31.9423 18.4323 31.9423 19.2133 32.7233C19.9943 33.5043 19.9943 34.7713 19.2133 35.5513L24.9743 29.7893C25.2473 29.5163 25.4973 29.2263 25.7343 28.9283C24.9833 29.1063 24.2103 29.2083 23.4193 29.2083C22.3703 29.2083 21.3473 29.0423 20.3753 28.7323Z" fill="#0A37C7"/>
<path d="M26.6054 17.8223C27.1054 18.7703 26.7744 19.9513 25.8364 20.4893C24.8784 21.0393 23.6554 20.7073 23.1064 19.7493C23.0884 19.7183 23.0654 19.6903 23.0464 19.6593C23.5984 20.5783 23.8994 21.6293 23.8994 22.7293C23.8994 23.5993 23.7094 24.4373 23.3594 25.2063C23.3794 25.2063 23.3994 25.2093 23.4194 25.2093C25.0184 25.2093 26.5214 24.5873 27.6514 23.4563L27.8744 23.2343C27.8824 23.0663 27.8994 22.8993 27.8994 22.7303C27.8994 20.9813 27.4454 19.3033 26.6054 17.8223Z" fill="#0A37C7"/>
<path d="M19.2131 32.7233C18.4321 31.9423 17.1661 31.9423 16.3851 32.7233C14.0521 35.0553 10.2541 35.0563 7.91914 32.7233C5.58614 30.3893 5.58614 26.5913 7.91914 24.2573L13.4581 18.7193L13.6811 18.4973C14.8121 17.3663 16.3151 16.7443 17.9131 16.7443C17.9331 16.7443 17.9531 16.7473 17.9731 16.7473C19.5491 16.7633 21.0281 17.3813 22.1451 18.4973C22.3161 18.6683 22.4721 18.8513 22.6201 19.0393C22.6601 19.0903 22.6961 19.1413 22.7341 19.1933C22.8451 19.3443 22.9491 19.5003 23.0451 19.6593C23.0631 19.6903 23.0871 19.7183 23.1051 19.7493C23.6551 20.7073 24.8771 21.0393 25.8351 20.4893C26.7721 19.9513 27.1041 18.7703 26.6041 17.8223C26.5931 17.8013 26.5871 17.7793 26.5761 17.7583C26.5461 17.7063 26.5081 17.6613 26.4771 17.6103C26.3181 17.3443 26.1451 17.0853 25.9601 16.8343C25.8941 16.7443 25.8301 16.6543 25.7611 16.5663C25.5151 16.2543 25.2561 15.9513 24.9731 15.6683C23.8291 14.5243 22.4551 13.6973 20.9571 13.2203C19.9851 12.9103 18.9621 12.7443 17.9131 12.7443C17.1221 12.7443 16.3491 12.8463 15.5981 13.0243C13.8171 13.4453 12.1791 14.3423 10.8531 15.6693L5.09114 21.4303C1.19814 25.3243 1.19814 31.6593 5.09114 35.5523C7.03814 37.4983 9.59514 38.4723 12.1531 38.4723C14.7111 38.4723 17.2661 37.4983 19.2141 35.5523C19.9951 34.7723 19.9951 33.5053 19.2141 32.7243L19.2131 32.7233Z" fill="#185DEE"/>
<path d="M36.246 20.5263L30.476 26.2863C29.156 27.6063 27.516 28.5063 25.736 28.9263C24.986 29.1063 24.206 29.2063 23.416 29.2063C22.366 29.2063 21.346 29.0463 20.376 28.7363C19.726 28.5263 19.096 28.2463 18.496 27.9063C18.436 27.8663 18.366 27.8263 18.296 27.7863C18.036 27.6263 17.776 27.4563 17.516 27.2663C17.436 27.2063 17.346 27.1363 17.256 27.0763C16.946 26.8263 16.646 26.5663 16.356 26.2863C16.076 25.9963 15.816 25.6963 15.566 25.3863C15.506 25.2963 15.436 25.2063 15.366 25.1163C15.186 24.8663 15.016 24.6063 14.856 24.3463C14.826 24.2963 14.786 24.2463 14.756 24.1963C14.746 24.1763 14.736 24.1463 14.726 24.1263C13.886 22.6463 13.436 20.9763 13.436 19.2263C13.436 19.0563 13.446 18.8863 13.456 18.7163L13.676 18.4963C14.816 17.3663 16.316 16.7463 17.916 16.7463H17.976C17.626 17.5163 17.436 18.3563 17.436 19.2263C17.436 20.3263 17.736 21.3763 18.286 22.2963C18.386 22.4563 18.486 22.6063 18.596 22.7563C18.636 22.8163 18.676 22.8663 18.716 22.9163C18.856 23.1063 19.016 23.2863 19.186 23.4563C19.356 23.6263 19.536 23.7863 19.726 23.9263C19.776 23.9663 19.826 24.0063 19.886 24.0463C20.036 24.1563 20.186 24.2563 20.346 24.3563C21.256 24.8963 22.276 25.1963 23.356 25.2063H23.416C25.016 25.2063 26.516 24.5863 27.656 23.4563L27.876 23.2363L33.416 17.6963C35.746 15.3563 35.746 11.5663 33.416 9.22629C31.076 6.89629 27.286 6.89629 24.946 9.22629L23.266 10.9163L22.206 11.9763L20.956 13.2163C19.986 12.9063 18.966 12.7463 17.916 12.7463C17.126 12.7463 16.346 12.8463 15.596 13.0263C15.836 12.7263 16.086 12.4363 16.356 12.1663L19.376 9.14629L22.116 6.39629C26.006 2.50629 32.346 2.50629 36.246 6.39629C40.136 10.2963 40.136 16.6263 36.246 20.5263Z" fill="#3182F6"/>
</g>
<defs>
<clipPath id="clip0_389_639">
<rect width="40" height="40" fill="white" transform="translate(0.666016 0.976288)"/>
</clipPath>
</defs>
</svg>
